<?xml version='1.0' encoding='utf-8'?>
<svg xmlns="http://www.w3.org/2000/svg" version="1.1" id="Layer_1" x="0px" y="0px" viewBox="0 0 100 100" enable-background="new 0 0 100 100"> <g> <rect x="2" y="12.1" fill="#E56353" width="96" height="83.3"/> <rect x="6.1" y="12.1" fill="#EBF0F3" width="87.8" height="77.8"/> <path fill="#E1E6E9" d="M44.6,89.8h49.2V40.6C93.9,67.8,71.8,89.8,44.6,89.8z"/> <rect x="41.3" y="-23.1" transform="matrix(-1.836970e-16 1 -1 -1.836970e-16 70.7512 -29.2483)" fill="#FCD462" width="17.4" height="87.8"/> <path fill="#3A556A" d="M48,67.1v5.3H28c0.2-2,0.9-3.9,2-5.7c1.1-1.8,3.2-4.2,6.4-7.1c2.6-2.4,4.2-4,4.7-4.9 c0.8-1.2,1.2-2.3,1.2-3.5c0-1.3-0.3-2.3-1-2.9s-1.6-1-2.8-1c-1.2,0-2.1,0.4-2.8,1.1s-1.1,1.9-1.2,3.6l-5.7-0.6 c0.3-3.1,1.4-5.4,3.2-6.8c1.8-1.4,4-2.1,6.7-2.1c2.9,0,5.3,0.8,6.9,2.4c1.7,1.6,2.5,3.6,2.5,5.9c0,1.3-0.2,2.6-0.7,3.8 c-0.5,1.2-1.2,2.5-2.3,3.8c-0.7,0.9-1.9,2.1-3.7,3.8c-1.8,1.7-2.9,2.8-3.4,3.3c-0.5,0.5-0.9,1.1-1.2,1.6H48z"/> <path fill="#3A556A" d="M52,64.7l5.7-0.6c0.2,1.3,0.6,2.3,1.4,3.1c0.8,0.8,1.7,1.1,2.8,1.1c1.2,0,2.2-0.5,3-1.5 c0.8-1,1.2-2.4,1.2-4.4c0-1.8-0.4-3.2-1.2-4.1S63,57,61.7,57c-1.6,0-3.1,0.7-4.4,2.2l-4.6-0.7L55.6,43h15.1v5.3H59.9L59,53.4 c1.3-0.6,2.6-1,3.9-1c2.5,0,4.7,0.9,6.4,2.8s2.6,4.2,2.6,7.2c0,2.5-0.7,4.6-2.1,6.6c-1.9,2.6-4.6,3.9-8.1,3.9c-2.8,0-5-0.7-6.7-2.2 C53.3,69.2,52.3,67.2,52,64.7z"/> <circle fill="#EBF0F3" cx="17.4" cy="18.6" r="2.4"/> <path fill="#E1E6E9" d="M17.4,16.1c0,0-0.1,0-0.1,0c1.2,0.1,2.1,1,2.1,2.2c0,1.2-1,2.2-2.2,2.2c-1.2,0-2.1-0.9-2.2-2.1 c0,0,0,0.1,0,0.1c0,1.4,1.1,2.4,2.4,2.4c1.4,0,2.4-1.1,2.4-2.4C19.9,17.2,18.8,16.1,17.4,16.1z"/> <path fill="#3A556A" d="M17.4,19.5c-2.5,0-4.5-3.3-4.5-7.4s2-7.4,4.5-7.4S22,7.9,22,12h-1.8c0-3.3-1.4-5.6-2.7-5.6 c-1.3,0-2.7,2.3-2.7,5.6c0,3.1,1.2,5.3,2.4,5.6c0.2,0,0.3,0.2,0.3,0.3V19.5z"/> <circle fill="#EBF0F3" cx="28.3" cy="18.6" r="2.4"/> <path fill="#E1E6E9" d="M28.3,16.1c0,0-0.1,0-0.1,0c1.2,0.1,2.1,1,2.1,2.2c0,1.2-1,2.2-2.2,2.2c-1.2,0-2.1-0.9-2.2-2.1 c0,0,0,0.1,0,0.1c0,1.4,1.1,2.4,2.4,2.4c1.4,0,2.4-1.1,2.4-2.4C30.7,17.2,29.6,16.1,28.3,16.1z"/> <path fill="#3A556A" d="M28.3,19.5c-2.5,0-4.5-3.3-4.5-7.4s2-7.4,4.5-7.4s4.5,3.3,4.5,7.4H31c0-3.3-1.4-5.6-2.7-5.6 c-1.3,0-2.7,2.3-2.7,5.6c0,3.1,1.2,5.3,2.4,5.6c0.2,0,0.3,0.2,0.3,0.3V19.5z"/> <circle fill="#EBF0F3" cx="39.1" cy="18.6" r="2.4"/> <path fill="#E1E6E9" d="M39.1,16.1c0,0-0.1,0-0.1,0c1.2,0.1,2.1,1,2.1,2.2c0,1.2-1,2.2-2.2,2.2c-1.2,0-2.1-0.9-2.2-2.1 c0,0,0,0.1,0,0.1c0,1.4,1.1,2.4,2.4,2.4c1.4,0,2.4-1.1,2.4-2.4C41.6,17.2,40.5,16.1,39.1,16.1z"/> <path fill="#3A556A" d="M39.1,19.5c-2.5,0-4.5-3.3-4.5-7.4s2-7.4,4.5-7.4s4.5,3.3,4.5,7.4h-1.8c0-3.3-1.4-5.6-2.7-5.6 c-1.3,0-2.7,2.3-2.7,5.6c0,3.1,1.2,5.3,2.4,5.6c0.2,0,0.3,0.2,0.3,0.3V19.5z"/> <circle fill="#EBF0F3" cx="50" cy="18.6" r="2.4"/> <path fill="#E1E6E9" d="M50,16.1c0,0-0.1,0-0.1,0c1.2,0.1,2.1,1,2.1,2.2c0,1.2-1,2.2-2.2,2.2c-1.2,0-2.1-0.9-2.2-2.1 c0,0,0,0.1,0,0.1c0,1.4,1.1,2.4,2.4,2.4c1.4,0,2.4-1.1,2.4-2.4C52.4,17.2,51.4,16.1,50,16.1z"/> <path fill="#3A556A" d="M50,19.5c-2.5,0-4.5-3.3-4.5-7.4s2-7.4,4.5-7.4s4.5,3.3,4.5,7.4h-1.8c0-3.3-1.4-5.6-2.7-5.6 s-2.7,2.3-2.7,5.6c0,3.1,1.2,5.3,2.4,5.6c0.2,0,0.3,0.2,0.3,0.3V19.5z"/> <circle fill="#EBF0F3" cx="60.9" cy="18.6" r="2.4"/> <path fill="#E1E6E9" d="M60.9,16.1c0,0-0.1,0-0.1,0c1.2,0.1,2.1,1,2.1,2.2c0,1.2-1,2.2-2.2,2.2c-1.2,0-2.1-0.9-2.2-2.1 c0,0,0,0.1,0,0.1c0,1.4,1.1,2.4,2.4,2.4c1.4,0,2.4-1.1,2.4-2.4C63.3,17.2,62.2,16.1,60.9,16.1z"/> <path fill="#3A556A" d="M60.9,19.5c-2.5,0-4.5-3.3-4.5-7.4s2-7.4,4.5-7.4s4.5,3.3,4.5,7.4h-1.8c0-3.3-1.4-5.6-2.7-5.6 c-1.3,0-2.7,2.3-2.7,5.6c0,3.1,1.2,5.3,2.4,5.6c0.2,0,0.3,0.2,0.3,0.3V19.5z"/> <circle fill="#EBF0F3" cx="71.7" cy="18.6" r="2.4"/> <path fill="#E1E6E9" d="M71.7,16.1c0,0-0.1,0-0.1,0c1.2,0.1,2.1,1,2.1,2.2c0,1.2-1,2.2-2.2,2.2c-1.2,0-2.1-0.9-2.2-2.1 c0,0,0,0.1,0,0.1c0,1.4,1.1,2.4,2.4,2.4c1.4,0,2.4-1.1,2.4-2.4C74.1,17.2,73.1,16.1,71.7,16.1z"/> <path fill="#3A556A" d="M71.7,19.5c-2.5,0-4.5-3.3-4.5-7.4s2-7.4,4.5-7.4c2.5,0,4.5,3.3,4.5,7.4h-1.8c0-3.3-1.4-5.6-2.7-5.6 S69,8.7,69,12c0,3.1,1.2,5.3,2.4,5.6c0.2,0,0.3,0.2,0.3,0.3V19.5z"/> <circle fill="#EBF0F3" cx="82.6" cy="18.6" r="2.4"/> <path fill="#E1E6E9" d="M82.6,16.1c0,0-0.1,0-0.1,0c1.2,0.1,2.1,1,2.1,2.2c0,1.2-1,2.2-2.2,2.2c-1.2,0-2.1-0.9-2.2-2.1 c0,0,0,0.1,0,0.1c0,1.4,1.1,2.4,2.4,2.4c1.4,0,2.4-1.1,2.4-2.4C85,17.2,83.9,16.1,82.6,16.1z"/> <path fill="#3A556A" d="M82.6,19.5C80,19.5,78,16.2,78,12s2-7.4,4.5-7.4s4.5,3.3,4.5,7.4h-1.8c0-3.3-1.4-5.6-2.7-5.6 s-2.7,2.3-2.7,5.6c0,3.1,1.2,5.3,2.4,5.6c0.2,0,0.3,0.2,0.3,0.3V19.5z"/> </g> </svg>